<svg width="60" height="62" viewBox="0 0 60 62" fill="none" xmlns="http://www.w3.org/2000/svg">
<g filter="url(#filter0_dd_2_125)">
<rect x="3.81775" y="12.4612" width="46.1005" height="44.0428" rx="0.8" transform="rotate(-9 3.81775 12.4612)" fill="url(#paint0_linear_2_125)"/>
</g>
<g filter="url(#filter1_dd_2_125)">
<rect x="5.56836" y="9.52174" width="41.5474" height="43.5079" transform="rotate(-9 5.56836 9.52174)" fill="url(#paint1_linear_2_125)"/>
</g>
<path fill-rule="evenodd" clip-rule="evenodd" d="M5.56519 9.52174L46.6011 3.0223L53.0628 43.8204C53.0628 43.8204 41.0924 46.1124 28.3721 48.0371C27.9355 48.1031 24.2027 48.7948 20.6542 49.2595C16.2918 49.8308 12.027 50.3199 12.027 50.3199L5.56519 9.52174Z" fill="white"/>
<rect x="5.41284" y="9.55176" width="41.6612" height="12.4804" transform="rotate(-9 5.41284 9.55176)" fill="#E95850"/>
<path d="M20.0593 16.5278L19.3 11.734L19.3522 11.7257L22.0839 16.1625L22.7451 16.0578L23.972 10.994L24.0242 10.9858L24.7835 15.7795L25.5143 15.6638L24.5201 9.38663L23.6109 9.53063L22.2846 15.065L22.215 15.076L19.2434 10.2224L18.3343 10.3664L19.3285 16.6435L20.0593 16.5278ZM30.7404 14.836L31.5626 14.7058L28.2542 8.79521L27.4798 8.91785L26.1598 15.5615L26.982 15.4313L27.3282 13.5348L29.8251 13.1394L30.7404 14.836ZM27.9927 9.87561L28.0623 9.86459L29.4891 12.5103L27.4533 12.8328L27.9927 9.87561ZM34.07 14.3087L33.6421 11.6073L35.303 7.67878L34.4112 7.82003L33.1607 10.8764L33.0911 10.8875L30.9573 8.36708L30.0655 8.50832L32.8591 11.7313L33.2869 14.4327L34.07 14.3087Z" fill="white"/>
<path d="M22.1874 35.3913L24.5362 35.0193C27.6365 34.5282 29.7805 35.7296 30.1652 38.1589C30.5351 40.4942 28.7559 42.5508 25.9508 42.9951C23.2933 43.416 21.0314 42.1646 20.5259 40.0158L18.7543 40.2964C19.3704 43.4045 22.4747 45.1967 26.2193 44.6036C30.0176 44.002 32.5679 41.0803 32.0641 37.8994C31.6432 35.2419 29.634 33.6753 26.8202 33.8045L26.7926 33.63C28.9688 32.7763 30.041 30.8592 29.6711 28.5238C29.2289 25.7322 26.2454 23.9208 22.9437 24.4438C19.4273 25.0007 17.3522 27.4482 17.6391 30.6496L19.4242 30.3669C19.2635 28.136 20.7293 26.4455 23.1317 26.065C25.5342 25.6845 27.5058 26.9269 27.8395 29.0341C28.1902 31.2486 26.7012 33.0529 24.2048 33.4483L21.9366 33.8075L22.1874 35.3913ZM40.4134 41.9427L42.2387 41.6536L39.167 22.2595L37.3417 22.5486C36.6242 23.1438 33.0597 26.6113 32.6883 26.9591L32.9965 28.9052C33.5862 28.3715 37.0518 24.9747 37.4903 24.6163L37.6648 24.5887L40.4134 41.9427Z" fill="black"/>
<defs>
<filter id="filter0_dd_2_125" x="0.643329" y="4.38997" width="58.7717" height="57.0612" filterUnits="userSpaceOnUse" color-interpolation-filters="sRGB">
<feFlood flood-opacity="0" result="BackgroundImageFix"/>
<feColorMatrix in="SourceAlpha" type="matrix" values="0 0 0 0 0 0 0 0 0 0 0 0 0 0 0 0 0 0 127 0" result="hardAlpha"/>
<feOffset dy="0.8"/>
<feColorMatrix type="matrix" values="0 0 0 0 0.192157 0 0 0 0 0.184314 0 0 0 0 0.176471 0 0 0 1 0"/>
<feBlend mode="normal" in2="BackgroundImageFix" result="effect1_dropShadow_2_125"/>
<feColorMatrix in="SourceAlpha" type="matrix" values="0 0 0 0 0 0 0 0 0 0 0 0 0 0 0 0 0 0 127 0" result="hardAlpha"/>
<feOffset dy="2.31494"/>
<feGaussianBlur stdDeviation="1.64483"/>
<feColorMatrix type="matrix" values="0 0 0 0 0 0 0 0 0 0 0 0 0 0 0 0 0 0 0.268201 0"/>
<feBlend mode="normal" in2="effect1_dropShadow_2_125" result="effect2_dropShadow_2_125"/>
<feBlend mode="normal" in="SourceGraphic" in2="effect2_dropShadow_2_125" result="shape"/>
</filter>
<filter id="filter1_dd_2_125" x="0.694797" y="0.463681" width="57.5892" height="59.2188" filterUnits="userSpaceOnUse" color-interpolation-filters="sRGB">
<feFlood flood-opacity="0" result="BackgroundImageFix"/>
<feColorMatrix in="SourceAlpha" type="matrix" values="0 0 0 0 0 0 0 0 0 0 0 0 0 0 0 0 0 0 127 0" result="hardAlpha"/>
<feOffset dy="2.31494"/>
<feGaussianBlur stdDeviation="2.43678"/>
<feColorMatrix type="matrix" values="0 0 0 0 0.226908 0 0 0 0 0.226908 0 0 0 0 0.226908 0 0 0 1 0"/>
<feBlend mode="normal" in2="BackgroundImageFix" result="effect1_dropShadow_2_125"/>
<feColorMatrix in="SourceAlpha" type="matrix" values="0 0 0 0 0 0 0 0 0 0 0 0 0 0 0 0 0 0 127 0" result="hardAlpha"/>
<feOffset dy="1.21839"/>
<feGaussianBlur stdDeviation="0.609195"/>
<feColorMatrix type="matrix" values="0 0 0 0 0 0 0 0 0 0 0 0 0 0 0 0 0 0 0.5 0"/>
<feBlend mode="normal" in2="effect1_dropShadow_2_125" result="effect2_dropShadow_2_125"/>
<feBlend mode="normal" in="SourceGraphic" in2="effect2_dropShadow_2_125" result="shape"/>
</filter>
<linearGradient id="paint0_linear_2_125" x1="3.81775" y1="55.7027" x2="52.7745" y2="55.3111" gradientUnits="userSpaceOnUse">
<stop stop-color="#738186"/>
<stop offset="0.992051" stop-color="#7C898F"/>
<stop offset="0.996406" stop-color="#C0C6C9"/>
<stop offset="1" stop-color="#7D8A90"/>
</linearGradient>
<linearGradient id="paint1_linear_2_125" x1="24.6036" y1="49.3887" x2="24.6036" y2="53.0296" gradientUnits="userSpaceOnUse">
<stop stop-color="white"/>
<stop offset="1" stop-color="#5F5F5F"/>
</linearGradient>
</defs>
</svg>
