<svg width="52" height="50" viewBox="0 0 52 50" fill="none" xmlns="http://www.w3.org/2000/svg">
<g filter="url(#filter0_d_2_53)">
<g clip-path="url(#clip0_2_53)">
<rect x="2.11792" y="2.125" width="47.7643" height="44.75" rx="2.2" fill="url(#paint0_linear_2_53)"/>
<g filter="url(#filter1_d_2_53)">
<path d="M31.7847 47.3327H48.2681C49.4294 47.3327 50.3708 46.3913 50.3708 45.23V5.27903C50.3708 4.11775 49.4294 3.17635 48.2681 3.17635L27.9988 3.17635C26.5057 5.80249 22.9652 14.6317 23.1012 27.2386C23.1012 27.2386 23.4122 29.1977 24.4637 29.1834H28.8179C28.8179 29.1834 30.032 29.0852 30.0465 30.8761C30.0479 31.0394 30.0471 31.254 30.0462 31.5146C30.0372 34.0323 30.0128 40.8517 31.7847 47.3327Z" fill="black" fill-opacity="0.01"/>
</g>
<path d="M31.4362 47.3327H48.2646C49.4258 47.3327 50.3673 46.3913 50.3673 45.23V4.22768C50.3673 3.0664 49.4258 2.125 48.2646 2.125H27.5795C26.0587 4.81367 22.4523 13.8531 22.5909 26.7602C22.5909 26.7602 22.4776 27.8977 23.5486 27.883H28.3875C28.3875 27.883 29.6002 27.7305 29.6148 29.5641C29.6161 29.713 29.616 29.9096 29.6158 30.1492C29.6138 32.7773 29.608 40.5771 31.4362 47.3327Z" fill="url(#paint1_linear_2_53)"/>
<rect opacity="0.8" x="35.6852" y="12.6384" width="2.30774" height="5.46698" rx="1.05134" fill="black"/>
<rect opacity="0.8" x="14.7057" y="12.6384" width="2.30774" height="5.46698" rx="1.05134" fill="black"/>
<path opacity="0.8" d="M11.5587 31.1533C11.5587 31.1533 16.22 37.3404 25.6987 37.3404C35.1775 37.3404 40.4904 30.8126 40.4904 30.8126" stroke="black" stroke-width="1.36675" stroke-linecap="round"/>
</g>
</g>
<defs>
<filter id="filter0_d_2_53" x="0.00978756" y="0.953815" width="51.9805" height="48.9663" filterUnits="userSpaceOnUse" color-interpolation-filters="sRGB">
<feFlood flood-opacity="0" result="BackgroundImageFix"/>
<feColorMatrix in="SourceAlpha" type="matrix" values="0 0 0 0 0 0 0 0 0 0 0 0 0 0 0 0 0 0 127 0" result="hardAlpha"/>
<feOffset dy="0.936948"/>
<feGaussianBlur stdDeviation="1.05407"/>
<feColorMatrix type="matrix" values="0 0 0 0 0 0 0 0 0 0 0 0 0 0 0 0 0 0 0.237404 0"/>
<feBlend mode="normal" in2="BackgroundImageFix" result="effect1_dropShadow_2_53"/>
<feBlend mode="normal" in="SourceGraphic" in2="effect1_dropShadow_2_53" result="shape"/>
</filter>
<filter id="filter1_d_2_53" x="21.5749" y="2.59075" width="28.7959" height="45.3276" filterUnits="userSpaceOnUse" color-interpolation-filters="sRGB">
<feFlood flood-opacity="0" result="BackgroundImageFix"/>
<feColorMatrix in="SourceAlpha" type="matrix" values="0 0 0 0 0 0 0 0 0 0 0 0 0 0 0 0 0 0 127 0" result="hardAlpha"/>
<feOffset dx="-0.936948"/>
<feGaussianBlur stdDeviation="0.292796"/>
<feColorMatrix type="matrix" values="0 0 0 0 0 0 0 0 0 0 0 0 0 0 0 0 0 0 0.414317 0"/>
<feBlend mode="normal" in2="BackgroundImageFix" result="effect1_dropShadow_2_53"/>
<feBlend mode="normal" in="SourceGraphic" in2="effect1_dropShadow_2_53" result="shape"/>
</filter>
<linearGradient id="paint0_linear_2_53" x1="2.11792" y1="2.125" x2="2.11792" y2="46.875" gradientUnits="userSpaceOnUse">
<stop stop-color="#1ADCFF"/>
<stop offset="1" stop-color="#1E72F1"/>
</linearGradient>
<linearGradient id="paint1_linear_2_53" x1="22.587" y1="2.125" x2="22.587" y2="47.3327" gradientUnits="userSpaceOnUse">
<stop stop-color="#F6F6F7"/>
<stop offset="0.226415" stop-color="#F0F3F6"/>
<stop offset="1" stop-color="#DCE8F4"/>
</linearGradient>
<clipPath id="clip0_2_53">
<rect x="2.11792" y="2.125" width="47.7643" height="44.75" rx="2.2" fill="white"/>
</clipPath>
</defs>
</svg>
