<svg width="1024" height="1024" viewBox="0 0 1024 1024" fill="none" xmlns="http://www.w3.org/2000/svg">
<g filter="url(#filter0_d_177_183)">
<rect x="98" y="98" width="828" height="828" rx="180" fill="url(#paint0_linear_177_183)"/>
</g>
<mask id="mask0_177_183" style="mask-type:alpha" maskUnits="userSpaceOnUse" x="98" y="98" width="828" height="828">
<rect x="98" y="98" width="828" height="828" rx="180" fill="white"/>
</mask>
<g mask="url(#mask0_177_183)">
<g filter="url(#filter1_di_177_183)">
<path fill-rule="evenodd" clip-rule="evenodd" d="M511.931 126.377C477.79 214.756 425.078 351.213 415.882 556.356C415.278 569.85 426.157 581 439.664 581H536.062C539.55 581 542.283 583.904 542.065 587.385C537.415 661.476 541.93 805.089 588.19 926H746C845.411 926 926 845.411 926 746V278C926 178.589 845.411 98 746 98H522.789C519.472 106.855 515.822 116.304 511.931 126.377Z" fill="url(#paint1_linear_177_183)"/>
</g>
</g>
<g filter="url(#filter2_i_177_183)">
<path fill-rule="evenodd" clip-rule="evenodd" d="M744.686 648.808C751.143 656.367 750.25 667.729 742.691 674.186C639.833 762.053 535.663 781.028 447.15 767.982C359.45 755.056 288.06 710.884 248.629 673.575C241.408 666.742 241.093 655.35 247.925 648.129C254.758 640.908 266.15 640.593 273.371 647.425C308.273 680.449 373.084 720.677 452.4 732.367C530.904 743.938 624.567 727.747 719.309 646.814C726.867 640.357 738.229 641.25 744.686 648.808Z" fill="#383838"/>
</g>
<g filter="url(#filter3_i_177_183)">
<rect x="660" y="336" width="36" height="90" rx="18" fill="#383838"/>
</g>
<g filter="url(#filter4_i_177_183)">
<rect x="298" y="336" width="36" height="90" rx="18" fill="#383838"/>
</g>
<defs>
<filter id="filter0_d_177_183" x="80" y="94" width="864" height="864" filterUnits="userSpaceOnUse" color-interpolation-filters="sRGB">
<feFlood flood-opacity="0" result="BackgroundImageFix"/>
<feColorMatrix in="SourceAlpha" type="matrix" values="0 0 0 0 0 0 0 0 0 0 0 0 0 0 0 0 0 0 127 0" result="hardAlpha"/>
<feOffset dy="14"/>
<feGaussianBlur stdDeviation="9"/>
<feComposite in2="hardAlpha" operator="out"/>
<feColorMatrix type="matrix" values="0 0 0 0 0 0 0 0 0 0 0 0 0 0 0 0 0 0 0.25 0"/>
<feBlend mode="normal" in2="BackgroundImageFix" result="effect1_dropShadow_177_183"/>
<feBlend mode="normal" in="SourceGraphic" in2="effect1_dropShadow_177_183" result="shape"/>
</filter>
<filter id="filter1_di_177_183" x="385.858" y="88" width="550.142" height="868" filterUnits="userSpaceOnUse" color-interpolation-filters="sRGB">
<feFlood flood-opacity="0" result="BackgroundImageFix"/>
<feColorMatrix in="SourceAlpha" type="matrix" values="0 0 0 0 0 0 0 0 0 0 0 0 0 0 0 0 0 0 127 0" result="hardAlpha"/>
<feOffset dx="-10" dy="10"/>
<feGaussianBlur stdDeviation="10"/>
<feComposite in2="hardAlpha" operator="out"/>
<feColorMatrix type="matrix" values="0 0 0 0 0 0 0 0 0 0 0 0 0 0 0 0 0 0 0.2 0"/>
<feBlend mode="normal" in2="BackgroundImageFix" result="effect1_dropShadow_177_183"/>
<feBlend mode="normal" in="SourceGraphic" in2="effect1_dropShadow_177_183" result="shape"/>
<feColorMatrix in="SourceAlpha" type="matrix" values="0 0 0 0 0 0 0 0 0 0 0 0 0 0 0 0 0 0 127 0" result="hardAlpha"/>
<feOffset dx="4"/>
<feGaussianBlur stdDeviation="2"/>
<feComposite in2="hardAlpha" operator="arithmetic" k2="-1" k3="1"/>
<feColorMatrix type="matrix" values="0 0 0 0 1 0 0 0 0 1 0 0 0 0 1 0 0 0 0.6 0"/>
<feBlend mode="normal" in2="shape" result="effect2_innerShadow_177_183"/>
</filter>
<filter id="filter2_i_177_183" x="243" y="642.5" width="506" height="137.202" filterUnits="userSpaceOnUse" color-interpolation-filters="sRGB">
<feFlood flood-opacity="0" result="BackgroundImageFix"/>
<feBlend mode="normal" in="SourceGraphic" in2="BackgroundImageFix" result="shape"/>
<feColorMatrix in="SourceAlpha" type="matrix" values="0 0 0 0 0 0 0 0 0 0 0 0 0 0 0 0 0 0 127 0" result="hardAlpha"/>
<feOffset dy="8"/>
<feGaussianBlur stdDeviation="5"/>
<feComposite in2="hardAlpha" operator="arithmetic" k2="-1" k3="1"/>
<feColorMatrix type="matrix" values="0 0 0 0 0 0 0 0 0 0 0 0 0 0 0 0 0 0 1 0"/>
<feBlend mode="normal" in2="shape" result="effect1_innerShadow_177_183"/>
</filter>
<filter id="filter3_i_177_183" x="660" y="336" width="36" height="98" filterUnits="userSpaceOnUse" color-interpolation-filters="sRGB">
<feFlood flood-opacity="0" result="BackgroundImageFix"/>
<feBlend mode="normal" in="SourceGraphic" in2="BackgroundImageFix" result="shape"/>
<feColorMatrix in="SourceAlpha" type="matrix" values="0 0 0 0 0 0 0 0 0 0 0 0 0 0 0 0 0 0 127 0" result="hardAlpha"/>
<feOffset dy="8"/>
<feGaussianBlur stdDeviation="5"/>
<feComposite in2="hardAlpha" operator="arithmetic" k2="-1" k3="1"/>
<feColorMatrix type="matrix" values="0 0 0 0 0 0 0 0 0 0 0 0 0 0 0 0 0 0 1 0"/>
<feBlend mode="normal" in2="shape" result="effect1_innerShadow_177_183"/>
</filter>
<filter id="filter4_i_177_183" x="298" y="336" width="36" height="98" filterUnits="userSpaceOnUse" color-interpolation-filters="sRGB">
<feFlood flood-opacity="0" result="BackgroundImageFix"/>
<feBlend mode="normal" in="SourceGraphic" in2="BackgroundImageFix" result="shape"/>
<feColorMatrix in="SourceAlpha" type="matrix" values="0 0 0 0 0 0 0 0 0 0 0 0 0 0 0 0 0 0 127 0" result="hardAlpha"/>
<feOffset dy="8"/>
<feGaussianBlur stdDeviation="5"/>
<feComposite in2="hardAlpha" operator="arithmetic" k2="-1" k3="1"/>
<feColorMatrix type="matrix" values="0 0 0 0 0 0 0 0 0 0 0 0 0 0 0 0 0 0 1 0"/>
<feBlend mode="normal" in2="shape" result="effect1_innerShadow_177_183"/>
</filter>
<linearGradient id="paint0_linear_177_183" x1="512" y1="98" x2="512" y2="926" gradientUnits="userSpaceOnUse">
<stop stop-color="#1AD2FD"/>
<stop offset="1" stop-color="#1D6AF1"/>
</linearGradient>
<linearGradient id="paint1_linear_177_183" x1="670.929" y1="98" x2="670.929" y2="926" gradientUnits="userSpaceOnUse">
<stop stop-color="#EFEFEF"/>
<stop offset="1" stop-color="#D0DAE5"/>
</linearGradient>
</defs>
</svg>
