<svg width="1024" height="1024" viewBox="0 0 1024 1024" fill="none" xmlns="http://www.w3.org/2000/svg">
<g filter="url(#filter0_d_158_84)">
<rect x="98" y="98" width="828" height="828" rx="180" fill="url(#paint0_linear_158_84)"/>
</g>
<circle cx="512" cy="512" r="348" fill="url(#paint1_linear_158_84)"/>
<path d="M512 194C509.238 194 507 196.239 507 199V249C507 251.761 509.238 254 512 254C514.761 254 517 251.761 517 249V199C517 196.239 514.761 194 512 194Z" fill="white"/>
<path d="M555.301 196.962C552.565 196.586 550.043 198.499 549.667 201.234L542.858 250.769C542.482 253.504 544.395 256.027 547.131 256.403C549.867 256.779 552.389 254.866 552.765 252.13L559.573 202.596C559.949 199.86 558.037 197.338 555.301 196.962Z" fill="white"/>
<path d="M591.631 209.258C592.376 206.599 595.136 205.047 597.795 205.792C600.454 206.537 602.005 209.297 601.26 211.956L587.771 260.102C587.026 262.761 584.266 264.312 581.607 263.567C578.948 262.822 577.396 260.063 578.141 257.404L591.631 209.258Z" fill="white"/>
<path d="M638.691 220.327C636.158 219.227 633.213 220.388 632.113 222.921L612.193 268.781C611.093 271.314 612.254 274.259 614.787 275.359C617.32 276.46 620.265 275.298 621.365 272.765L641.285 226.905C642.385 224.372 641.224 221.427 638.691 220.327Z" fill="white"/>
<path d="M670.358 241.969C671.793 239.609 674.868 238.86 677.228 240.294C679.587 241.729 680.337 244.805 678.902 247.164L652.923 289.885C651.488 292.245 648.412 292.994 646.053 291.56C643.693 290.125 642.944 287.049 644.379 284.69L670.358 241.969Z" fill="white"/>
<path d="M712.686 265.324C710.544 263.581 707.395 263.905 705.652 266.047L674.098 304.833C672.355 306.975 672.679 310.124 674.821 311.867C676.963 313.609 680.112 313.286 681.855 311.143L713.409 272.358C715.152 270.216 714.828 267.067 712.686 265.324Z" fill="white"/>
<path d="M771.796 328.616C770.204 326.36 767.084 325.822 764.828 327.414L723.979 356.248C721.724 357.841 721.186 360.96 722.778 363.216C724.37 365.472 727.49 366.01 729.746 364.418L770.595 335.584C772.851 333.991 773.389 330.872 771.796 328.616Z" fill="white"/>
<path d="M787.607 363.56C790.059 362.29 793.077 363.248 794.347 365.699C795.617 368.151 794.66 371.169 792.208 372.439L747.814 395.442C745.362 396.713 742.344 395.755 741.074 393.303C739.803 390.852 740.761 387.834 743.213 386.564L787.607 363.56Z" fill="white"/>
<path d="M811.639 405.508C810.714 402.906 807.855 401.547 805.253 402.472L758.14 419.215C755.538 420.14 754.179 422.999 755.103 425.601C756.028 428.203 758.887 429.563 761.489 428.638L808.602 411.894C811.204 410.969 812.564 408.11 811.639 405.508Z" fill="white"/>
<path d="M817.435 443.423C820.139 442.861 822.786 444.598 823.348 447.301C823.91 450.005 822.174 452.652 819.47 453.214L770.516 463.387C767.812 463.949 765.165 462.212 764.603 459.509C764.041 456.805 765.778 454.158 768.481 453.596L817.435 443.423Z" fill="white"/>
<path d="M829.258 490.299C829.07 487.544 826.683 485.463 823.928 485.652L774.045 489.064C771.29 489.252 769.209 491.638 769.398 494.393C769.586 497.148 771.972 499.229 774.727 499.041L824.611 495.628C827.366 495.44 829.446 493.054 829.258 490.299Z" fill="white"/>
<path d="M824.611 528.371C827.366 528.56 829.447 530.946 829.258 533.701C829.07 536.456 826.684 538.537 823.929 538.348L774.045 534.936C771.29 534.748 769.21 532.361 769.398 529.606C769.586 526.851 771.973 524.771 774.728 524.959L824.611 528.371Z" fill="white"/>
<path d="M823.348 576.699C823.91 573.995 822.173 571.348 819.47 570.786L770.515 560.614C767.812 560.052 765.164 561.788 764.603 564.492C764.041 567.195 765.777 569.843 768.481 570.404L817.435 580.577C820.139 581.139 822.786 579.403 823.348 576.699Z" fill="white"/>
<path d="M808.602 612.106C811.204 613.031 812.564 615.89 811.639 618.492C810.714 621.094 807.855 622.453 805.253 621.529L758.14 604.785C755.538 603.86 754.178 601.001 755.103 598.399C756.028 595.797 758.887 594.437 761.489 595.362L808.602 612.106Z" fill="white"/>
<path d="M794.348 658.301C795.618 655.849 794.661 652.831 792.209 651.561L747.815 628.558C745.363 627.287 742.345 628.245 741.075 630.697C739.804 633.149 740.762 636.166 743.214 637.437L787.608 660.44C790.06 661.71 793.077 660.753 794.348 658.301Z" fill="white"/>
<path d="M770.595 688.416C772.851 690.008 773.388 693.128 771.796 695.384C770.204 697.64 767.084 698.178 764.828 696.586L723.979 667.752C721.723 666.159 721.185 663.039 722.778 660.783C724.37 658.527 727.49 657.989 729.746 659.582L770.595 688.416Z" fill="white"/>
<path d="M744.405 729.052C746.29 727.034 746.182 723.87 744.164 721.985L707.622 687.858C705.604 685.973 702.44 686.081 700.555 688.099C698.67 690.117 698.778 693.281 700.797 695.166L737.338 729.294C739.357 731.178 742.521 731.07 744.405 729.052Z" fill="white"/>
<path d="M713.409 751.642C715.151 753.784 714.828 756.934 712.686 758.676C710.544 760.419 707.394 760.095 705.652 757.953L674.097 719.168C672.355 717.026 672.678 713.876 674.82 712.134C676.962 710.391 680.112 710.715 681.854 712.857L713.409 751.642Z" fill="white"/>
<path d="M677.228 783.705C679.587 782.271 680.337 779.195 678.902 776.835L652.923 734.114C651.488 731.755 648.412 731.005 646.053 732.44C643.693 733.875 642.944 736.951 644.378 739.31L670.358 782.031C671.792 784.391 674.868 785.14 677.228 783.705Z" fill="white"/>
<path d="M641.285 797.095C642.385 799.628 641.224 802.573 638.691 803.673C636.158 804.773 633.213 803.612 632.113 801.079L612.193 755.219C611.093 752.686 612.254 749.741 614.787 748.641C617.32 747.54 620.265 748.702 621.365 751.235L641.285 797.095Z" fill="white"/>
<path d="M597.795 818.208C600.454 817.463 602.005 814.703 601.26 812.044L587.77 763.898C587.025 761.239 584.266 759.688 581.607 760.433C578.948 761.178 577.396 763.937 578.141 766.596L591.631 814.742C592.376 817.401 595.136 818.953 597.795 818.208Z" fill="white"/>
<path d="M559.574 821.404C559.95 824.14 558.037 826.662 555.301 827.038C552.565 827.414 550.043 825.501 549.667 822.766L542.859 773.231C542.483 770.496 544.396 767.973 547.131 767.597C549.867 767.221 552.389 769.134 552.765 771.87L559.574 821.404Z" fill="white"/>
<path d="M512 830C514.761 830 517 827.761 517 825V775C517 772.239 514.761 770 512 770C509.238 770 507 772.239 507 775V825C507 827.761 509.238 830 512 830Z" fill="white"/>
<path d="M474.333 822.766C473.957 825.502 471.434 827.414 468.699 827.038C465.963 826.662 464.05 824.14 464.426 821.404L471.234 771.87C471.61 769.134 474.133 767.221 476.869 767.597C479.604 767.973 481.517 770.496 481.141 773.232L474.333 822.766Z" fill="white"/>
<path d="M426.205 818.208C428.864 818.953 431.623 817.401 432.368 814.742L445.858 766.596C446.603 763.937 445.052 761.178 442.392 760.433C439.733 759.688 436.974 761.239 436.229 763.898L422.739 812.044C421.994 814.703 423.546 817.463 426.205 818.208Z" fill="white"/>
<path d="M391.886 801.079C390.786 803.612 387.841 804.774 385.308 803.674C382.775 802.573 381.614 799.628 382.714 797.095L402.634 751.235C403.734 748.702 406.679 747.541 409.212 748.641C411.745 749.741 412.906 752.686 411.806 755.219L391.886 801.079Z" fill="white"/>
<path d="M346.772 783.705C349.131 785.14 352.207 784.391 353.642 782.031L379.621 739.31C381.056 736.951 380.306 733.875 377.947 732.44C375.587 731.005 372.511 731.755 371.077 734.114L345.097 776.835C343.663 779.195 344.412 782.271 346.772 783.705Z" fill="white"/>
<path d="M318.348 757.953C316.605 760.095 313.456 760.419 311.314 758.676C309.172 756.933 308.848 753.784 310.59 751.642L342.145 712.857C343.888 710.714 347.037 710.391 349.179 712.133C351.321 713.876 351.645 717.025 349.902 719.167L318.348 757.953Z" fill="white"/>
<path d="M259.172 696.586C256.916 698.178 253.796 697.64 252.203 695.384C250.611 693.128 251.149 690.009 253.405 688.416L294.253 659.582C296.509 657.99 299.629 658.528 301.221 660.784C302.814 663.04 302.276 666.159 300.02 667.752L259.172 696.586Z" fill="white"/>
<path d="M229.653 658.301C230.923 660.752 233.94 661.71 236.392 660.44L280.787 637.436C283.238 636.166 284.196 633.148 282.926 630.697C281.655 628.245 278.638 627.287 276.186 628.558L231.792 651.561C229.34 652.831 228.382 655.849 229.653 658.301Z" fill="white"/>
<path d="M218.747 621.528C216.145 622.453 213.286 621.094 212.361 618.492C211.437 615.89 212.796 613.031 215.398 612.106L262.511 595.362C265.113 594.437 267.972 595.797 268.897 598.399C269.822 601.001 268.462 603.86 265.86 604.785L218.747 621.528Z" fill="white"/>
<path d="M200.651 576.699C201.213 579.402 203.86 581.139 206.564 580.577L255.518 570.404C258.222 569.842 259.958 567.195 259.396 564.491C258.835 561.788 256.187 560.051 253.484 560.613L204.53 570.786C201.826 571.348 200.09 573.995 200.651 576.699Z" fill="white"/>
<path d="M200.071 538.348C197.316 538.537 194.93 536.456 194.742 533.701C194.553 530.946 196.634 528.56 199.389 528.372L249.272 524.959C252.027 524.771 254.413 526.852 254.602 529.607C254.79 532.362 252.71 534.748 249.955 534.936L200.071 538.348Z" fill="white"/>
<path d="M194.741 490.299C194.553 493.054 196.633 495.44 199.388 495.629L249.272 499.041C252.027 499.229 254.413 497.149 254.601 494.394C254.79 491.639 252.709 489.252 249.954 489.064L200.071 485.652C197.316 485.463 194.93 487.544 194.741 490.299Z" fill="white"/>
<path d="M204.53 453.214C201.826 452.652 200.09 450.005 200.652 447.301C201.214 444.597 203.861 442.861 206.564 443.423L255.519 453.596C258.222 454.157 259.959 456.805 259.397 459.508C258.835 462.212 256.188 463.948 253.484 463.386L204.53 453.214Z" fill="white"/>
<path d="M212.361 405.508C211.436 408.11 212.796 410.969 215.398 411.894L262.511 428.638C265.113 429.563 267.972 428.203 268.896 425.601C269.821 422.999 268.461 420.14 265.859 419.215L218.746 402.471C216.144 401.547 213.285 402.906 212.361 405.508Z" fill="white"/>
<path d="M231.791 372.439C229.339 371.169 228.381 368.151 229.652 365.699C230.922 363.248 233.94 362.29 236.391 363.56L280.786 386.564C283.237 387.834 284.195 390.852 282.925 393.303C281.654 395.755 278.637 396.713 276.185 395.442L231.791 372.439Z" fill="white"/>
<path d="M252.203 328.616C250.611 330.872 251.149 333.992 253.405 335.584L294.253 364.418C296.509 366.011 299.629 365.473 301.222 363.217C302.814 360.961 302.276 357.841 300.02 356.248L259.172 327.414C256.916 325.822 253.796 326.36 252.203 328.616Z" fill="white"/>
<path d="M279.836 302.015C277.817 300.13 277.709 296.966 279.594 294.948C281.479 292.93 284.643 292.822 286.661 294.707L323.203 328.834C325.221 330.719 325.329 333.883 323.444 335.901C321.559 337.919 318.396 338.028 316.377 336.143L279.836 302.015Z" fill="white"/>
<path d="M311.314 265.324C309.172 267.067 308.848 270.216 310.591 272.358L342.145 311.143C343.888 313.285 347.037 313.609 349.179 311.866C351.321 310.124 351.645 306.975 349.902 304.832L318.348 266.047C316.605 263.905 313.456 263.581 311.314 265.324Z" fill="white"/>
<path d="M345.098 247.165C343.663 244.805 344.412 241.729 346.772 240.295C349.131 238.86 352.207 239.609 353.642 241.969L379.621 284.69C381.056 287.049 380.306 290.125 377.947 291.56C375.587 292.995 372.512 292.245 371.077 289.886L345.098 247.165Z" fill="white"/>
<path d="M385.308 220.327C382.776 221.427 381.614 224.372 382.714 226.905L402.634 272.765C403.735 275.298 406.68 276.46 409.213 275.36C411.745 274.259 412.907 271.314 411.807 268.781L391.887 222.921C390.786 220.388 387.841 219.227 385.308 220.327Z" fill="white"/>
<path d="M422.739 211.956C421.994 209.297 423.546 206.537 426.205 205.792C428.864 205.047 431.624 206.599 432.369 209.258L445.858 257.404C446.603 260.063 445.052 262.822 442.393 263.567C439.734 264.312 436.974 262.761 436.229 260.102L422.739 211.956Z" fill="white"/>
<path d="M468.699 196.962C465.964 197.338 464.051 199.86 464.427 202.596L471.235 252.13C471.611 254.866 474.134 256.779 476.869 256.403C479.605 256.027 481.518 253.504 481.142 250.769L474.334 201.234C473.958 198.499 471.435 196.586 468.699 196.962Z" fill="white"/>
<path d="M283.9 729.358C280.182 732.012 276.353 727.907 279.261 724.383L482.675 480.552L740.101 294.643C743.819 291.988 747.648 296.094 744.74 299.617L541.326 543.448L283.9 729.358Z" fill="white"/>
<path fill-rule="evenodd" clip-rule="evenodd" d="M541.326 543.448L744.739 299.617C747.647 296.094 743.819 291.988 740.101 294.643L482.674 480.552L541.326 543.448Z" fill="#FD4D42"/>
<path fill-rule="evenodd" clip-rule="evenodd" d="M279.096 729.187C280.154 730.322 282.041 730.685 283.9 729.357L541.326 543.449L744.74 299.617C746.194 297.855 745.964 295.948 744.905 294.813L279.096 729.187Z" fill="black" fill-opacity="0.26"/>
<defs>
<filter id="filter0_d_158_84" x="80" y="94" width="864" height="864" filterUnits="userSpaceOnUse" color-interpolation-filters="sRGB">
<feFlood flood-opacity="0" result="BackgroundImageFix"/>
<feColorMatrix in="SourceAlpha" type="matrix" values="0 0 0 0 0 0 0 0 0 0 0 0 0 0 0 0 0 0 127 0" result="hardAlpha"/>
<feOffset dy="14"/>
<feGaussianBlur stdDeviation="9"/>
<feComposite in2="hardAlpha" operator="out"/>
<feColorMatrix type="matrix" values="0 0 0 0 0 0 0 0 0 0 0 0 0 0 0 0 0 0 0.25 0"/>
<feBlend mode="normal" in2="BackgroundImageFix" result="effect1_dropShadow_158_84"/>
<feBlend mode="normal" in="SourceGraphic" in2="effect1_dropShadow_158_84" result="shape"/>
</filter>
<linearGradient id="paint0_linear_158_84" x1="512" y1="98" x2="512" y2="926" gradientUnits="userSpaceOnUse">
<stop stop-color="white"/>
<stop offset="1" stop-color="#D1D1D1"/>
</linearGradient>
<linearGradient id="paint1_linear_158_84" x1="512" y1="164" x2="512" y2="860" gradientUnits="userSpaceOnUse">
<stop stop-color="#21A6F0"/>
<stop offset="1" stop-color="#1D76E7"/>
</linearGradient>
</defs>
</svg>
