<svg width="24" height="23" viewBox="0 0 24 23" fill="none" xmlns="http://www.w3.org/2000/svg">
<g style="mix-blend-mode:hard-light" opacity="0.76" filter="url(#filter0_d_109_2023)">
<path d="M10.8047 13.5234C11.4505 13.5234 12.0573 13.401 12.625 13.1562C13.1927 12.9115 13.6927 12.5729 14.125 12.1406C14.5573 11.7031 14.8958 11.2005 15.1406 10.6328C15.3906 10.0651 15.5156 9.45833 15.5156 8.8125C15.5156 8.16667 15.3906 7.5599 15.1406 6.99219C14.8958 6.42448 14.5573 5.92448 14.125 5.49219C13.6927 5.0599 13.1927 4.72135 12.625 4.47656C12.0573 4.22656 11.4505 4.10156 10.8047 4.10156C10.1589 4.10156 9.55208 4.22656 8.98438 4.47656C8.41667 4.72135 7.91406 5.0599 7.47656 5.49219C7.04427 5.92448 6.70573 6.42448 6.46094 6.99219C6.21615 7.5599 6.09375 8.16667 6.09375 8.8125C6.09375 9.45833 6.21615 10.0651 6.46094 10.6328C6.70573 11.2005 7.04427 11.7031 7.47656 12.1406C7.91406 12.5729 8.41667 12.9115 8.98438 13.1562C9.55208 13.401 10.1589 13.5234 10.8047 13.5234ZM10.8047 14.8203C9.97656 14.8203 9.20052 14.6641 8.47656 14.3516C7.7526 14.0391 7.11458 13.6068 6.5625 13.0547C6.01042 12.5026 5.57812 11.8646 5.26562 11.1406C4.95312 10.4167 4.79688 9.64062 4.79688 8.8125C4.79688 7.98438 4.95312 7.20833 5.26562 6.48438C5.57812 5.75521 6.01042 5.11719 6.5625 4.57031C7.11458 4.01823 7.7526 3.58594 8.47656 3.27344C9.20573 2.96094 9.98177 2.80469 10.8047 2.80469C11.6328 2.80469 12.4089 2.96094 13.1328 3.27344C13.8568 3.58594 14.4948 4.01823 15.0469 4.57031C15.599 5.1224 16.0312 5.76042 16.3438 6.48438C16.6562 7.20833 16.8125 7.98438 16.8125 8.8125C16.8125 9.64062 16.6562 10.4167 16.3438 11.1406C16.0312 11.8646 15.599 12.5026 15.0469 13.0547C14.4948 13.6068 13.8568 14.0391 13.1328 14.3516C12.4089 14.6641 11.6328 14.8203 10.8047 14.8203ZM18.6406 17.6562C18.5208 17.6562 18.4062 17.6354 18.2969 17.5938C18.1875 17.5521 18.0885 17.487 18 17.3984L13.8516 13.25L15.1328 12.0078L19.2578 16.1406C19.3464 16.224 19.4089 16.3203 19.4453 16.4297C19.487 16.5391 19.5078 16.651 19.5078 16.7656C19.5078 16.9323 19.4688 17.0807 19.3906 17.2109C19.3177 17.3464 19.2161 17.4531 19.0859 17.5312C18.9557 17.6146 18.8073 17.6562 18.6406 17.6562Z" fill="black"/>
</g>
<defs>
<filter id="filter0_d_109_2023" x="0.796875" y="0.804688" width="22.7109" height="22.8516" filterUnits="userSpaceOnUse" color-interpolation-filters="sRGB">
<feFlood flood-opacity="0" result="BackgroundImageFix"/>
<feColorMatrix in="SourceAlpha" type="matrix" values="0 0 0 0 0 0 0 0 0 0 0 0 0 0 0 0 0 0 127 0" result="hardAlpha"/>
<feOffset dy="2"/>
<feGaussianBlur stdDeviation="2"/>
<feColorMatrix type="matrix" values="0 0 0 0 0 0 0 0 0 0 0 0 0 0 0 0 0 0 0.15 0"/>
<feBlend mode="normal" in2="BackgroundImageFix" result="effect1_dropShadow_109_2023"/>
<feBlend mode="normal" in="SourceGraphic" in2="effect1_dropShadow_109_2023" result="shape"/>
</filter>
</defs>
</svg>
