<svg width="54" height="61" viewBox="0 0 54 61" fill="none" xmlns="http://www.w3.org/2000/svg">
<g opacity="0.970149" filter="url(#filter0_bd_2_60)">
<path d="M27.0018 2.35989C37.9979 2.54486 42.8104 3.89908 45.398 5.12832C47.9856 6.35756 47.3031 8.1493 47.3031 8.1493C47.3031 8.1493 42.6082 44.6805 41.921 47.9526C40.5945 54.2709 32.0447 54.5904 27.0018 54.6655C27.0018 54.6655 27.6081 54.672 27.0018 54.6603C21.9603 54.5628 13.4503 54.2734 12.1236 47.9549C11.4364 44.6828 6.74154 8.15155 6.74154 8.15155C6.74154 8.15155 6.05908 6.3598 8.64664 5.13056C11.231 3.90286 16.0347 2.55048 27.0018 2.36283V2.35989Z" fill="url(#paint0_linear_2_60)"/>
</g>
<g style="mix-blend-mode:multiply" opacity="0.235833">
<path fill-rule="evenodd" clip-rule="evenodd" d="M27.0691 12.1992C38.1806 12.1992 47.1882 10.0553 47.1882 7.41072C47.1882 4.76613 38.1806 2.62228 27.0691 2.62228C15.9577 2.62228 6.95007 4.76613 6.95007 7.41072C6.95007 10.0553 15.9577 12.1992 27.0691 12.1992Z" fill="url(#paint1_linear_2_60)"/>
</g>
<defs>
<filter id="filter0_bd_2_60" x="-65.9454" y="-70.2456" width="185.935" height="197.518" filterUnits="userSpaceOnUse" color-interpolation-filters="sRGB">
<feFlood flood-opacity="0" result="BackgroundImageFix"/>
<feGaussianBlur in="BackgroundImageFix" stdDeviation="36.3028"/>
<feComposite in2="SourceAlpha" operator="in" result="effect1_backgroundBlur_2_60"/>
<feColorMatrix in="SourceAlpha" type="matrix" values="0 0 0 0 0 0 0 0 0 0 0 0 0 0 0 0 0 0 127 0" result="hardAlpha"/>
<feOffset dy="2"/>
<feGaussianBlur stdDeviation="1.90476"/>
<feColorMatrix type="matrix" values="0 0 0 0 0 0 0 0 0 0 0 0 0 0 0 0 0 0 0.178612 0"/>
<feBlend mode="normal" in2="effect1_backgroundBlur_2_60" result="effect2_dropShadow_2_60"/>
<feBlend mode="normal" in="SourceGraphic" in2="effect2_dropShadow_2_60" result="shape"/>
</filter>
<linearGradient id="paint0_linear_2_60" x1="9.744" y1="53.6019" x2="44.4786" y2="53.6019" gradientUnits="userSpaceOnUse">
<stop stop-color="#F2F3F4"/>
<stop offset="0.674571" stop-color="#ECECEC"/>
<stop offset="1" stop-color="white"/>
</linearGradient>
<linearGradient id="paint1_linear_2_60" x1="9.99717" y1="12.0044" x2="44.3172" y2="12.0044" gradientUnits="userSpaceOnUse">
<stop stop-color="#B0B6B8"/>
<stop offset="0.674571" stop-color="#CDD3D3"/>
<stop offset="1" stop-color="#A8AEB0"/>
</linearGradient>
</defs>
</svg>
